:FULLY-SPECIFIED
:FORCE-ALL-JOINTS-BE-3DOF
:DEGREES
1053
root 1.20625 15.1596 32.5521 4.89542 -3.40226 363.45
lfemur 8.79448 0.468002 5.67251
ltibia 1.84018e-14 0 0
lfoot -30.3855 -11.1916 0
ltoes -34.2331 0 0
rfemur -31.0566 -15.6745 -6.3062
rtibia 50.0129 0 0
rfoot -21.8632 5.43341 0
rtoes -40.95 0 0
lowerback -1.82731 -0.0531404 -0.245657
upperback -0.482189 -0.0330936 -6.04072
thorax 0.526368 -0.0181596 -6.12362
lowerneck -7.01238 0.740597 6.54439
upperneck 1.28343 0.30227 3.66928
head 1.59412 0.277604 0.0564685
lclavicle -3.46454e-15 3.22599e-14 0
lhumerus -58.7026 -46.8686 115.403
lradius 55.8081 0 0
lwrist 25.5447 0 0
lhand 37.428 25.3084 0
lfingers 7.12502 0 0
lthumb 60.2311 38.8437 0
rclavicle -3.46454e-15 3.22599e-14 0
rhumerus 2.13835 -23.5322 0.62642
rradius 27.4864 0 0
rwrist -9.7237 0 0
rhand -30.5287 -42.0421 0
rfingers 7.12502 0 0
rthumb -3.82805 -791.988 0
1054
root 1.20787 15.1601 32.5565 4.89543 -3.39092 363.436
lfemur 8.80799 0.458692 5.68019
ltibia 1.56756e-14 0 0
lfoot -30.3967 -11.1744 0
ltoes -34.253 0 0
rfemur -31.0194 -15.6564 -6.30554
rtibia 49.9951 0 0
rfoot -21.8586 5.41735 0
rtoes -40.9364 0 0
lowerback -1.84088 -0.0529351 -0.251559
upperback -0.480281 -0.0321108 -6.03382
thorax 0.536071 -0.0175058 -6.11293
lowerneck -7.02922 0.728027 6.53023
upperneck 1.30252 0.283862 3.68164
head 1.603 0.269512 0.0621353
lclavicle -2.31443e-15 2.45357e-14 0
lhumerus -58.6972 -46.8841 115.409
lradius 55.8097 0 0
lwrist 25.5587 0 0
lhand 37.437 25.3025 0
lfingers 7.12502 0 0
lthumb 60.2388 38.8297 0
rclavicle -2.31443e-15 2.45357e-14 0
rhumerus 2.1101 -23.5186 0.642023
rradius 27.4853 0 0
rwrist -9.70114 0 0
rhand -30.5308 -42.02 0
rfingers 7.12502 0 0
rthumb -3.83005 -791.966 0
1055
root 1.2095 15.1605 32.561 4.89545 -3.37957 363.421
lfemur 8.8215 0.449383 5.68788
ltibia 1.29494e-14 0 0
lfoot -30.4078 -11.1571 0
ltoes -34.273 0 0
rfemur -30.9823 -15.6384 -6.30489
rtibia 49.9773 0 0
rfoot -21.8541 5.4013 0
rtoes -40.9227 0 0
lowerback -1.85445 -0.0527299 -0.257461
upperback -0.478373 -0.0311279 -6.02692
thorax 0.545774 -0.016852 -6.10224
lowerneck -7.04607 0.715457 6.51607
upperneck 1.32161 0.265454 3.69401
head 1.61188 0.26142 0.067802
lclavicle -1.16431e-15 1.68115e-14 0
lhumerus -58.6917 -46.8996 115.415
lradius 55.8112 0 0
lwrist 25.5726 0 0
lhand 37.446 25.2967 0
lfingers 7.12502 0 0
lthumb 60.2464 38.8156 0
rclavicle -1.16431e-15 1.68115e-14 0
rhumerus 2.08186 -23.505 0.657625
rradius 27.4843 0 0
rwrist -9.67858 0 0
rhand -30.5329 -41.9979 0
rfingers 7.12502 0 0
rthumb -3.83205 -791.943 0
1056
root 1.21112 15.161 32.5654 4.89546 -3.36823 363.407
lfemur 8.83501 0.440073 5.69556
ltibia 1.02232e-14 0 0
lfoot -30.419 -11.1399 0
ltoes -34.2929 0 0
rfemur -30.9451 -15.6203 -6.30423
rtibia 49.9595 0 0
rfoot -21.8495 5.38524 0
rtoes -40.9091 0 0
lowerback -1.86802 -0.0525246 -0.263363
upperback -0.476465 -0.0301451 -6.02002
thorax 0.555477 -0.0161982 -6.09155
lowerneck -7.06291 0.702887 6.50191
upperneck 1.3407 0.247046 3.70637
head 1.62076 0.253328 0.0734688
lclavicle -1.42029e-17 9.08729e-15 0
lhumerus -58.6863 -46.9151 115.421
lradius 55.8128 0 0
lwrist 25.5866 0 0
lhand 37.455 25.2908 0
lfingers 7.12502 0 0
lthumb 60.2541 38.8016 0
rclavicle -1.42029e-17 9.08729e-15 0
rhumerus 2.05361 -23.4914 0.673228
rradius 27.4832 0 0
rwrist -9.65602 0 0
rhand -30.535 -41.9758 0
rfingers 7.12502 0 0
rthumb -3.83405 -791.921 0
1057
root 1.21274 15.1614 32.5699 4.89548 -3.35689 363.393
lfemur 8.84851 0.430764 5.70325
ltibia 7.49703e-15 0 0
lfoot -30.4301 -11.1227 0
ltoes -34.3129 0 0
rfemur -30.908 -15.6022 -6.30357
rtibia 49.9418 0 0
rfoot -21.8449 5.36919 0
rtoes -40.8955 0 0
lowerback -1.88159 -0.0523193 -0.269264
upperback -0.474556 -0.0291623 -6.01313
thorax 0.565181 -0.0155444 -6.08085
lowerneck -7.07975 0.690317 6.48776
upperneck 1.35978 0.228637 3.71873
head 1.62964 0.245235 0.0791355
lclavicle 1.13591e-15 1.36309e-15 0
lhumerus -58.6809 -46.9307 115.427
lradius 55.8143 0 0
lwrist 25.6006 0 0
lhand 37.4639 25.285 0
lfingers 7.12502 0 0
lthumb 60.2617 38.7875 0
rclavicle 1.13591e-15 1.36309e-15 0
rhumerus 2.02537 -23.4779 0.688831
rradius 27.4822 0 0
rwrist -9.63347 0 0
rhand -30.537 -41.9538 0
rfingers 7.12502 0 0
rthumb -3.83604 -791.899 0
1058
root 1.21436 15.1619 32.5743 4.89549 -3.34555 363.379
lfemur 8.86202 0.421454 5.71093
ltibia 4.77083e-15 0 0
lfoot -30.4413 -11.1055 0
ltoes -34.3328 0 0
rfemur -30.8708 -15.5841 -6.30291
rtibia 49.924 0 0
rfoot -21.8403 5.35313 0
rtoes -40.8819 0 0
lowerback -1.89516 -0.052114 -0.275166
upperback -0.472648 -0.0281795 -6.00623
thorax 0.574884 -0.0148906 -6.07016
lowerneck -7.09659 0.677747 6.4736
upperneck 1.37887 0.210229 3.73109
head 1.63852 0.237143 0.0848023
lclavicle 2.28602e-15 -6.36111e-15 0
lhumerus -58.6755 -46.9462 115.433
lradius 55.8159 0 0
lwrist 25.6146 0 0
lhand 37.4729 25.2791 0
lfingers 7.12502 0 0
lthumb 60.2694 38.7735 0
rclavicle 2.28602e-15 -6.36111e-15 0
rhumerus 1.99712 -23.4643 0.704434
rradius 27.4811 0 0
rwrist -9.61091 0 0
rhand -30.5391 -41.9317 0
rfingers 7.12502 0 0
rthumb -3.83804 -791.877 0
1059
root 1.21641 15.1623 32.5782 4.90232 -3.35835 363.368
lfemur 8.81043 0.439492 5.69052
ltibia 0.134677 0 0
lfoot -30.5138 -11.0792 0
ltoes -34.3341 0 0
rfemur -30.8558 -15.5736 -6.3016
rtibia 49.9041 0 0
rfoot -21.8396 5.36717 0
rtoes -40.8681 0 0
lowerback -1.90378 -0.0513661 -0.283544
upperback -0.475101 -0.026896 -5.99506
thorax 0.577343 -0.014261 -6.05347
lowerneck -7.08941 0.679194 6.46597
upperneck 1.36119 0.214483 3.72757
head 1.6315 0.238401 0.0850915
lclavicle 2.62679e-15 -9.54167e-15 0
lhumerus -58.6411 -46.9101 115.42
lradius 55.8054 0 0
lwrist 25.6113 0 0
lhand 37.4796 25.2912 0
lfingers 7.12502 0 0
lthumb 60.2751 38.7795 0
rclavicle 2.62679e-15 -9.54167e-15 0
rhumerus 1.99505 -23.4432 0.711397
rradius 27.4868 0 0
rwrist -9.5874 0 0
rhand -30.5537 -41.9285 0
rfingers 7.12502 0 0
rthumb -3.85214 -791.874 0
1060
root 1.21847 15.1628 32.5822 4.90916 -3.37114 363.356
lfemur 8.75885 0.457529 5.6701
ltibia 0.269355 0 0
lfoot -30.5864 -11.0529 0
ltoes -34.3354 0 0
rfemur -30.8409 -15.563 -6.30028
rtibia 49.8842 0 0
rfoot -21.8389 5.38121 0
rtoes -40.8543 0 0
lowerback -1.91241 -0.0506181 -0.291922
upperback -0.477553 -0.0256126 -5.98389
thorax 0.579801 -0.0136314 -6.03679
lowerneck -7.08224 0.68064 6.45834
upperneck 1.34351 0.218736 3.72405
head 1.62449 0.239658 0.0853808
lclavicle 2.96757e-15 -1.27222e-14 0
lhumerus -58.6067 -46.8741 115.406
lradius 55.795 0 0
lwrist 25.608 0 0
lhand 37.4862 25.3033 0
lfingers 7.12502 0 0
lthumb 60.2808 38.7855 0
rclavicle 2.96757e-15 -1.27222e-14 0
rhumerus 1.99297 -23.4222 0.718361
rradius 27.4926 0 0
rwrist -9.56388 0 0
rhand -30.5683 -41.9254 0
rfingers 7.12502 0 0
rthumb -3.86624 -791.87 0
1061
root 1.22052 15.1632 32.5861 4.91599 -3.38394 363.345
lfemur 8.70726 0.475567 5.64969
ltibia 0.404032 0 0
lfoot -30.6589 -11.0266 0
ltoes -34.3367 0 0
rfemur -30.8259 -15.5525 -6.29897
rtibia 49.8643 0 0
rfoot -21.8382 5.39525 0
rtoes -40.8405 0 0
lowerback -1.92103 -0.0498702 -0.3003
upperback -0.480006 -0.0243291 -5.97272
thorax 0.58226 -0.0130018 -6.0201
lowerneck -7.07506 0.682087 6.45071
upperneck 1.32583 0.22299 3.72053
head 1.61747 0.240916 0.08567
lclavicle 3.30834e-15 -1.59028e-14 0
lhumerus -58.5723 -46.838 115.393
lradius 55.7845 0 0
lwrist 25.6047 0 0
lhand 37.4929 25.3154 0
lfingers 7.12502 0 0
lthumb 60.2865 38.7915 0
rclavicle 3.30834e-15 -1.59028e-14 0
rhumerus 1.9909 -23.4011 0.725324
rradius 27.4983 0 0
rwrist -9.54037 0 0
rhand -30.5829 -41.9222 0
rfingers 7.12502 0 0
rthumb -3.88034 -791.867 0
1062
root 1.22258 15.1636 32.59 4.92283 -3.39674 363.334
lfemur 8.65567 0.493604 5.62928
ltibia 0.53871 0 0
lfoot -30.7315 -11.0004 0
ltoes -34.338 0 0
rfemur -30.8109 -15.542 -6.29765
rtibia 49.8443 0 0
rfoot -21.8376 5.40929 0
rtoes -40.8268 0 0
lowerback -1.92966 -0.0491223 -0.308678
upperback -0.482459 -0.0230456 -5.96154
thorax 0.584719 -0.0123723 -6.00341
lowerneck -7.06788 0.683534 6.44308
upperneck 1.30814 0.227244 3.717
head 1.61045 0.242174 0.0859592
lclavicle 3.64912e-15 -1.90833e-14 0
lhumerus -58.538 -46.802 115.38
lradius 55.774 0 0
lwrist 25.6014 0 0
lhand 37.4996 25.3276 0
lfingers 7.12502 0 0
lthumb 60.2921 38.7975 0
rclavicle 3.64912e-15 -1.90833e-14 0
rhumerus 1.98883 -23.3801 0.732287
rradius 27.504 0 0
rwrist -9.51685 0 0
rhand -30.5975 -41.9191 0
rfingers 7.12502 0 0
rthumb -3.89444 -791.863 0
1063
root 1.22463 15.164 32.5939 4.92966 -3.40954 363.323
lfemur 8.60408 0.511642 5.60887
ltibia 0.673387 0 0
lfoot -30.804 -10.9741 0
ltoes -34.3393 0 0
rfemur -30.7959 -15.5315 -6.29634
rtibia 49.8244 0 0
rfoot -21.8369 5.42333 0
rtoes -40.813 0 0
lowerback -1.93828 -0.0483744 -0.317056
upperback -0.484912 -0.0217621 -5.95037
thorax 0.587178 -0.0117427 -5.98672
lowerneck -7.0607 0.684981 6.43545
upperneck 1.29046 0.231498 3.71348
head 1.60343 0.243432 0.0862484
lclavicle 3.98989e-15 -2.22639e-14 0
lhumerus -58.5036 -46.7659 115.367
lradius 55.7635 0 0
lwrist 25.5981 0 0
lhand 37.5063 25.3397 0
lfingers 7.12502 0 0
lthumb 60.2978 38.8035 0
rclavicle 3.98989e-15 -2.22639e-14 0
rhumerus 1.98676 -23.359 0.73925
rradius 27.5097 0 0
rwrist -9.49334 0 0
rhand -30.6121 -41.9159 0
rfingers 7.12502 0 0
rthumb -3.90854 -791.86 0
1064
root 1.22669 15.1645 32.5979 4.9365 -3.42233 363.311
lfemur 8.5525 0.529679 5.58845
ltibia 0.808065 0 0
lfoot -30.8766 -10.9478 0
ltoes -34.3406 0 0
rfemur -30.781 -15.5209 -6.29502
rtibia 49.8045 0 0
rfoot -21.8362 5.43737 0
rtoes -40.7992 0 0
lowerback -1.94691 -0.0476264 -0.325434
upperback -0.487364 -0.0204787 -5.9392
thorax 0.589636 -0.0111131 -5.97004
lowerneck -7.05353 0.686427 6.42782
upperneck 1.27278 0.235751 3.70996
head 1.59642 0.244689 0.0865377
lclavicle 4.33067e-15 -2.54444e-14 0
lhumerus -58.4692 -46.7299 115.353
lradius 55.7531 0 0
lwrist 25.5948 0 0
lhand 37.5129 25.3518 0
lfingers 7.12502 0 0
lthumb 60.3035 38.8095 0
rclavicle 4.33067e-15 -2.54444e-14 0
rhumerus 1.98468 -23.338 0.746214
rradius 27.5155 0 0
rwrist -9.46982 0 0
rhand -30.6267 -41.9128 0
rfingers 7.12502 0 0
rthumb -3.92264 -791.856 0
1065
root 1.22874 15.1649 32.6018 4.94333 -3.43513 363.3
lfemur 8.50091 0.547717 5.56804
ltibia 0.942742 0 0
lfoot -30.9491 -10.9215 0
ltoes -34.3419 0 0
rfemur -30.766 -15.5104 -6.29371
rtibia 49.7846 0 0
rfoot -21.8355 5.45141 0
rtoes -40.7854 0 0
lowerback -1.95553 -0.0468785 -0.333812
upperback -0.489817 -0.0191952 -5.92803
thorax 0.592095 -0.0104835 -5.95335
lowerneck -7.04635 0.687874 6.42019
upperneck 1.2551 0.240005 3.70644
head 1.5894 0.245947 0.0868269
lclavicle 4.67144e-15 -2.8625e-14 0
lhumerus -58.4348 -46.6938 115.34
lradius 55.7426 0 0
lwrist 25.5915 0 0
lhand 37.5196 25.3639 0
lfingers 7.12502 0 0
lthumb 60.3092 38.8155 0
rclavicle 4.67144e-15 -2.8625e-14 0
rhumerus 1.98261 -23.3169 0.753177
rradius 27.5212 0 0
rwrist -9.44631 0 0
rhand -30.6413 -41.9096 0
rfingers 7.12502 0 0
rthumb -3.93674 -791.853 0
1066
root 1.23074 15.1653 32.6058 4.94653 -3.447 363.292
lfemur 8.44447 0.563307 5.54051
ltibia 1.09502 0 0
lfoot -31.0301 -10.8938 0
ltoes -34.337 0 0
rfemur -30.7461 -15.4821 -6.298
rtibia 49.7646 0 0
rfoot -21.8348 5.43766 0
rtoes -40.7888 0 0
lowerback -1.9654 -0.0521941 -0.344607
upperback -0.494891 -0.0260517 -5.92184
thorax 0.591737 -0.0140266 -5.94078
lowerneck -7.05428 0.695877 6.41261
upperneck 1.29571 0.248407 3.70916
head 1.60417 0.251707 0.0893228
lclavicle 5.83575e-15 -2.20367e-14 0
lhumerus -58.4488 -46.6996 115.368
lradius 55.7343 0 0
lwrist 25.5846 0 0
lhand 37.5209 25.3445 0
lfingers 7.12502 0 0
lthumb 60.3103 38.7949 0
rclavicle 5.83575e-15 -2.20367e-14 0
rhumerus 2.00881 -23.2896 0.716933
rradius 27.5258 0 0
rwrist -9.42295 0 0
rhand -30.6535 -41.8983 0
rfingers 7.12502 0 0
rthumb -3.94853 -791.841 0
